<?xml version="1.0" standalone="no"?>
<!DOCTYPE svg PUBLIC "-//W3C//DTD SVG 20010904//EN"
 "http://www.w3.org/TR/2001/REC-SVG-20010904/DTD/svg10.dtd">
<svg version="1.0" xmlns="http://www.w3.org/2000/svg"
 width="1949.000000pt" height="3464.000000pt" viewBox="0 0 1949.000000 3464.000000"
 preserveAspectRatio="xMidYMid meet">
<metadata>
Created by potrace 1.16, written by Peter Selinger 2001-2019
</metadata>
<g transform="translate(0.000000,3464.000000) scale(0.100000,-0.100000)"
fill="#000000" stroke="none">
<path d="M9374 24482 c-6 -4 -21 -26 -33 -49 -18 -37 -27 -44 -61 -49 -64 -10
-70 -28 -26 -73 37 -38 38 -41 31 -90 -6 -48 -6 -51 15 -51 13 0 38 9 56 21
l34 21 36 -21 c62 -37 81 -25 66 44 -8 37 -6 44 25 82 43 53 36 73 -24 73 -39
0 -46 4 -61 31 -27 49 -46 70 -58 61z"/>
<path d="M10293 24418 c-5 -7 -22 -43 -38 -80 -23 -56 -32 -68 -51 -68 -43 0
-126 -24 -131 -38 -4 -8 18 -38 52 -72 l58 -58 -12 -78 c-16 -109 -7 -116 82
-63 l68 41 70 -37 c38 -20 74 -33 80 -29 7 4 9 23 5 50 -20 146 -24 127 33
187 28 30 51 59 51 65 0 17 -34 32 -77 33 -73 2 -86 10 -123 84 -36 72 -50 85
-67 63z m81 -180 c6 -4 27 -8 46 -8 62 -1 68 -13 27 -57 -39 -40 -43 -60 -27
-128 5 -22 8 -41 6 -42 -1 -2 -26 10 -54 25 l-52 27 -51 -29 -52 -29 6 62 7
62 -41 41 c-22 22 -38 43 -35 45 2 3 28 10 58 17 48 10 54 15 68 51 27 71 31
73 58 19 14 -27 30 -52 36 -56z"/>
<path d="M8317 24006 c-52 -19 -75 -42 -87 -86 -20 -72 24 -154 149 -279 47
-47 125 -117 172 -153 l86 -67 7 -78 c14 -166 71 -280 195 -395 117 -108 294
-178 451 -178 83 0 210 30 284 66 61 31 74 34 96 24 35 -17 233 -88 305 -110
277 -86 513 -114 613 -74 84 33 103 106 55 205 -63 129 -383 400 -678 573 -24
15 -35 34 -57 102 -77 236 -281 402 -535 434 -99 13 -221 -1 -315 -36 -40 -15
-84 -27 -98 -27 -14 -1 -78 14 -143 31 -224 61 -413 79 -500 48z m258 -41 c75
-11 190 -37 199 -46 5 -4 -8 -3 -30 3 -21 5 -86 11 -144 12 -118 1 -158 -13
-184 -63 -36 -69 55 -210 207 -321 26 -19 67 -50 90 -69 145 -118 570 -358
772 -435 39 -15 79 -31 90 -36 11 -5 45 -19 75 -31 30 -11 78 -30 105 -41 385
-159 744 -200 794 -92 6 14 11 35 11 47 1 21 2 20 25 -8 28 -34 40 -82 31
-121 -13 -49 -122 -72 -258 -54 -161 22 -436 99 -663 187 -172 67 -606 288
-794 404 -14 9 -53 33 -86 52 -61 36 -153 100 -184 127 -10 8 -42 35 -72 60
-202 166 -313 317 -279 380 27 51 135 68 295 45z m837 -30 c145 -34 249 -93
337 -192 68 -76 123 -189 128 -263 2 -30 6 -76 9 -101 11 -91 -49 -255 -125
-340 l-38 -43 -129 53 c-140 59 -377 174 -519 254 -106 59 -336 209 -353 230
-10 11 -4 30 28 94 48 97 134 189 215 229 32 16 73 37 93 47 82 43 246 58 354
32z m-657 -65 c17 -4 48 -11 69 -15 l39 -6 -45 -47 c-56 -58 -113 -141 -128
-187 -6 -19 -18 -35 -25 -35 -8 0 -50 36 -94 79 -74 74 -121 141 -121 174 0
17 28 43 55 50 27 8 213 -2 250 -13z m55 -566 c84 -54 139 -88 260 -157 49
-28 416 -211 468 -233 39 -17 42 -20 25 -31 -33 -25 -158 -56 -244 -61 -286
-16 -544 166 -614 435 -19 72 -20 127 -2 117 6 -4 55 -36 107 -70z m1179 54
c145 -87 268 -177 380 -277 93 -83 141 -150 141 -193 0 -57 -94 -72 -278 -43
-53 9 -110 20 -127 25 -113 33 -325 103 -325 106 0 3 13 22 29 42 61 76 112
203 126 310 4 28 9 52 12 52 3 0 22 -10 42 -22z"/>
<path d="M10992 23717 c-5 -7 -21 -35 -35 -63 -26 -51 -26 -52 -84 -58 -32 -4
-66 -9 -75 -12 -31 -9 -19 -38 32 -78 l50 -39 -7 -73 c-7 -88 -4 -90 87 -44
l60 30 64 -29 c84 -38 92 -32 76 53 l-12 66 51 46 c28 25 51 50 51 55 0 14
-40 27 -91 30 -61 3 -74 12 -105 68 -28 53 -47 67 -62 48z m43 -109 c24 -43
32 -48 77 -48 49 0 55 -14 17 -42 -30 -22 -31 -25 -25 -76 4 -29 3 -52 -1 -49
-76 39 -84 40 -130 18 -24 -11 -46 -21 -48 -21 -3 0 -2 20 2 45 6 43 4 47 -33
79 l-39 33 53 8 c48 6 54 10 72 46 11 21 24 39 28 39 4 0 16 -15 27 -32z"/>
<path d="M10291 23571 c-20 -39 -37 -51 -72 -51 -32 0 -34 -29 -4 -60 24 -25
27 -35 22 -69 -7 -53 10 -68 52 -47 38 20 61 20 89 0 36 -25 54 -3 46 55 -5
41 -3 49 20 70 33 31 33 49 1 56 -14 3 -35 7 -48 10 -14 3 -30 18 -40 40 -22
45 -42 44 -66 -4z"/>
<path d="M8210 23351 c-16 -33 -26 -40 -60 -46 -55 -9 -60 -29 -20 -70 29 -30
31 -37 25 -74 -9 -52 9 -61 66 -36 37 17 41 17 78 0 22 -9 44 -14 49 -11 6 4
8 28 5 59 -5 47 -2 54 21 76 42 39 30 61 -33 61 -22 0 -34 9 -55 40 -14 22
-33 40 -41 40 -8 0 -24 -18 -35 -39z"/>
<path d="M8718 22818 c-8 -13 -18 -33 -22 -44 -5 -17 -18 -23 -52 -29 -59 -8
-65 -27 -24 -70 30 -31 32 -37 26 -79 -9 -57 6 -66 58 -35 35 21 38 21 79 5
67 -25 71 -24 63 37 -5 50 -4 55 24 82 47 45 36 65 -36 65 -24 0 -37 5 -41 18
-9 25 -43 72 -53 72 -4 0 -14 -10 -22 -22z"/>
<path d="M10949 22733 c-23 -54 -33 -63 -72 -63 -35 0 -67 -16 -67 -34 0 -8
17 -29 38 -48 38 -35 39 -36 32 -89 -4 -30 -6 -57 -3 -61 8 -14 31 -9 75 16
l43 24 47 -24 c26 -13 54 -21 62 -18 9 3 16 7 16 8 0 1 -5 28 -11 60 l-10 59
37 38 c21 21 34 44 31 52 -5 14 -49 27 -92 27 -16 0 -27 12 -45 50 -31 66 -54
67 -81 3z m60 -63 c7 -22 16 -30 33 -30 13 0 30 -5 38 -10 12 -7 11 -13 -9
-34 -19 -20 -22 -31 -17 -61 l7 -35 -35 16 c-32 16 -37 16 -60 1 -35 -24 -39
-22 -32 16 5 27 2 38 -19 57 -31 30 -32 40 -1 40 27 0 51 20 61 50 9 28 21 25
34 -10z"/>
<path d="M9428 22631 c-19 -34 -28 -41 -54 -41 -17 0 -37 -7 -44 -15 -11 -13
-8 -21 19 -49 30 -31 32 -38 26 -74 -8 -51 5 -60 56 -37 32 15 44 16 65 7 14
-7 34 -12 45 -12 18 0 20 6 18 45 -2 35 2 50 20 69 33 35 24 59 -24 69 -29 6
-46 17 -60 39 -29 45 -41 45 -67 -1z"/>
<path d="M9989 22536 c-22 -50 -43 -66 -86 -66 -28 0 -53 -15 -53 -32 0 -5 18
-27 40 -48 32 -31 39 -45 35 -65 -3 -14 -7 -35 -10 -48 -2 -12 0 -29 5 -37 8
-12 17 -11 62 11 l54 27 45 -23 c63 -32 76 -23 63 49 l-10 55 38 45 c22 25 37
50 34 55 -4 5 -31 13 -60 16 -52 7 -55 9 -78 54 -33 63 -53 64 -79 7z m59 -70
c7 -16 22 -26 47 -30 l37 -7 -23 -25 c-16 -18 -22 -35 -21 -59 3 -39 3 -39
-31 -24 -19 9 -31 7 -56 -6 l-32 -16 2 40 c2 26 -3 47 -14 59 -23 25 -22 29
11 35 17 4 33 16 40 31 14 32 26 33 40 2z"/>
<path d="M9002 22209 c-31 -56 -39 -62 -83 -68 -57 -8 -64 -33 -19 -71 30 -26
32 -32 28 -74 -7 -63 7 -73 66 -44 44 21 47 21 75 5 16 -9 39 -17 51 -17 22 0
22 3 17 52 -6 49 -5 55 24 84 17 18 29 38 27 46 -3 7 -27 18 -54 23 -42 9 -52
16 -69 48 -27 49 -43 53 -63 16z"/>
<path d="M10654 22183 c-7 -5 -19 -24 -27 -44 -13 -31 -21 -37 -55 -43 -23 -3
-44 -11 -48 -17 -3 -6 8 -26 26 -44 29 -30 32 -38 27 -72 -10 -59 2 -69 53
-43 41 21 45 21 71 6 29 -17 55 -21 63 -8 3 4 1 26 -4 47 -8 35 -6 42 21 73
17 19 28 39 26 45 -2 7 -21 15 -42 18 -22 4 -46 16 -54 27 -9 12 -23 30 -31
42 -9 11 -20 17 -26 13z"/>
<path d="M9790 22040 c-13 -25 -27 -40 -39 -40 -55 0 -67 -32 -25 -71 20 -19
24 -30 19 -55 -6 -34 2 -64 17 -64 5 0 22 9 37 19 23 17 29 18 51 5 14 -7 36
-13 49 -14 22 0 23 2 16 46 -6 42 -4 49 21 75 34 35 27 54 -23 62 -32 6 -42
13 -56 42 -22 46 -42 44 -67 -5z"/>
</g>
</svg>
